<?xml version="1.0" standalone="no"?>
<!DOCTYPE svg PUBLIC "-//W3C//DTD SVG 20010904//EN"
 "http://www.w3.org/TR/2001/REC-SVG-20010904/DTD/svg10.dtd">
<svg version="1.0" xmlns="http://www.w3.org/2000/svg"
 width="980.000000pt" height="980.000000pt" viewBox="0 0 980.000000 980.000000"
 preserveAspectRatio="xMidYMid meet">

<g transform="translate(0.000000,980.000000) scale(0.100000,-0.100000)"
fill="#000000" stroke="none">
<path d="M4858 7970 c-15 -4 -64 -30 -110 -58 -46 -27 -330 -192 -633 -367
-302 -175 -838 -484 -1190 -688 -352 -203 -653 -382 -670 -398 l-30 -29 0
-1529 0 -1529 24 -26 c13 -14 119 -80 235 -147 116 -67 290 -168 386 -224 96
-56 396 -229 665 -385 270 -156 677 -391 905 -524 375 -217 419 -241 460 -241
40 1 82 22 405 209 465 270 489 284 1150 666 1085 627 1078 623 1102 659 l23
34 -2 1518 -3 1519 -30 29 c-26 24 -259 161 -1280 751 -82 47 -411 238 -731
422 -339 197 -594 339 -615 342 -18 3 -46 1 -61 -4z m206 -384 c192 -111 1107
-641 1391 -805 110 -63 265 -153 345 -199 80 -46 193 -111 252 -145 59 -34
108 -65 108 -69 0 -4 -15 -15 -32 -24 -18 -9 -116 -65 -218 -124 -102 -59
-345 -200 -540 -313 -487 -280 -496 -285 -1013 -584 l-457 -264 -238 137
c-130 76 -289 167 -352 204 -63 37 -367 213 -675 390 -308 177 -658 379 -777
448 -120 69 -218 128 -218 131 0 3 44 31 98 62 53 31 360 208 682 394 559 322
743 429 1250 724 124 71 227 130 229 131 2 0 76 -42 165 -94z m-2426 -1540
c70 -41 289 -167 487 -281 198 -114 470 -272 605 -350 135 -78 317 -183 405
-233 88 -51 264 -152 390 -225 l230 -132 3 -1312 2 -1312 -187 108 c-104 60
-285 164 -403 233 -118 68 -545 314 -947 547 l-733 424 0 1304 c0 899 3 1303
10 1303 6 0 68 -33 138 -74z m4672 -1230 l0 -1303 -602 -348 c-1120 -647
-1243 -718 -1453 -841 l-210 -123 -3 1307 c-2 1037 1 1309 10 1317 7 7 283
167 613 357 615 355 1370 790 1530 884 50 28 96 53 103 53 9 1 12 -266 12
-1303z"/>
<path d="M4545 6934 c-11 -2 -45 -9 -75 -15 -179 -34 -388 -141 -480 -245 -66
-76 -88 -169 -54 -240 17 -36 84 -106 131 -135 l28 -18 140 81 c77 44 141 82
143 83 1 1 -13 18 -33 38 -42 42 -45 76 -13 123 35 51 115 87 208 92 105 6
177 -16 226 -70 32 -36 35 -44 32 -87 -3 -25 -13 -76 -23 -112 -16 -57 -17
-72 -6 -109 16 -53 74 -112 172 -173 l77 -48 123 71 c68 39 127 75 132 79 4 4
-17 24 -46 44 -51 35 -97 97 -97 131 0 8 11 50 25 92 44 134 32 197 -52 276
-58 54 -102 78 -210 114 -64 22 -100 27 -203 30 -69 2 -134 1 -145 -2z"/>
<path d="M5384 6150 c-75 -11 -140 -43 -164 -82 -28 -45 -25 -71 11 -112 111
-128 449 -84 449 57 0 93 -142 158 -296 137z"/>
<path d="M3330 5110 c-42 -8 -89 -31 -112 -57 -33 -36 -60 -113 -61 -176 l-2
-62 135 -77 c74 -43 137 -78 140 -78 3 0 11 20 18 45 12 47 47 75 93 75 63 0
173 -91 218 -178 72 -140 38 -250 -85 -281 -136 -35 -173 -63 -198 -154 -8
-29 -16 -94 -18 -145 l-3 -94 120 -70 c66 -38 125 -72 131 -75 7 -2 13 18 17
56 13 122 48 160 165 181 131 23 192 79 212 198 22 135 -17 305 -107 456 -59
98 -207 251 -312 320 -129 86 -266 131 -351 116z"/>
<path d="M3475 3729 c-83 -50 -59 -223 47 -344 72 -82 152 -106 204 -61 24 20
28 32 32 87 9 143 -108 312 -225 325 -21 3 -47 -1 -58 -7z"/>
<path d="M6350 5104 c-126 -33 -305 -147 -412 -262 -103 -112 -184 -257 -217
-389 -20 -81 -33 -183 -22 -183 3 1 69 38 146 83 l140 82 7 49 c14 103 110
237 193 272 74 31 136 10 151 -52 11 -42 -2 -125 -29 -185 -13 -30 -64 -111
-112 -180 -144 -203 -181 -300 -192 -498 l-6 -115 34 20 c19 11 80 47 137 79
l102 60 0 47 c0 125 44 229 163 388 153 202 216 359 217 531 0 105 -21 168
-69 212 -63 57 -128 68 -231 41z"/>
<path d="M6153 3685 c-18 -7 -53 -35 -78 -61 -122 -128 -141 -332 -33 -358
130 -32 307 220 258 368 -20 63 -76 82 -147 51z"/>
</g>
</svg>
